<?xml version="1.0" encoding="UTF-8"?><svg id="a" xmlns="http://www.w3.org/2000/svg" width="40.5137mm" height="6.8133mm" viewBox="0 0 114.842 19.3133"><path d="M34.7856,13.6404h-5.823c-.1493,0-.2837.0906-.3397.2291l-1.5947,3.9427c-.056.1384-.1904.2291-.3397.2291h-1.0265c-.2616,0-.439-.2662-.3382-.5076l6.276-15.0353c.126-.3019.5545-.2999.6777.0032l6.1125,15.0353c.098.241-.0793.5045-.3395.5045h-1.0308c-.1505,0-.2857-.092-.3409-.232l-1.5522-3.9367c-.0552-.14-.1904-.232-.3409-.232ZM34.1894,11.4991l-1.9544-4.9023c-.1223-.3066-.5558-.308-.68-.0021l-1.9895,4.9023c-.0978.241.0795.5043.3396.5043h3.9439c.2591,0,.4364-.2615.3404-.5022Z" style="fill:#757471;"/><path d="M42.8429,4.4321v13.2427c0,.2024-.1641.3665-.3665.3665h-1.0001c-.2024,0-.3665-.1641-.3665-.3665V4.4321c0-.2024-.1641-.3665-.3665-.3665h-4.1728c-.2024,0-.3665-.1641-.3665-.3665v-.9062c0-.2024.1641-.3665.3665-.3665h10.8105c.2024,0,.3665.1641.3665.3665v.9062c0,.2024-.1641.3665-.3665.3665h-4.1717c-.2024,0-.3665.1641-.3665.3665Z" style="fill:#757471;"/><path d="M52.034,2.7929v14.8818c0,.2024-.1641.3665-.3665.3665h-.999c-.2024,0-.3665-.1641-.3665-.3665V2.7929c0-.2024.1641-.3665.3665-.3665h.999c.2024,0,.3665.1641.3665.3665Z" style="fill:#757471;"/><path d="M64.4733,13.5251c-.8052,1.7241-1.8755,3.1436-3.2104,4.2578l-.8145-1.2715c1.335-.9434,2.4663-2.3604,3.3936-4.251h-2.3955c.0493.062.106.1357.1694.2212l-.8076,1.2432c-.3667-.5571-.7148-1.0503-1.0454-1.479v6.4302h-1.4321v-6.4302c-.4341,1.2817-.9614,2.4722-1.5815,3.5723l-.7939-1.5933c1.0586-1.5952,1.7988-3.2622,2.2192-5.001h-1.9409v-1.4219h2.0972v-3.0293h1.4321v3.0293h1.3643v1.4219h-1.3643v1.293c.439.3862.8418.7812,1.208,1.186v-.7856h3.5024v-2.2437h-1.4458c-.2397.8291-.502,1.5195-.7871,2.0723l-1.1812-.8506c.6426-1.2954,1.0542-2.8315,1.2354-4.6079l1.2627.1572c-.0908.8525-.1792,1.4907-.2651,1.9146h1.1812v-2.5864h1.4053v2.5864h2.8643v1.3145h-2.8643v2.2437h3.4751v1.3433h-2.8711c.873,1.5718,1.9185,2.8174,3.1357,3.7363l-.8213,1.479c-1.1406-1.0098-2.1133-2.3125-2.9185-3.9082v5.1084h-1.4053v-5.1509Z" style="fill:#757471;"/><path d="M76.0002,12.4533v3.0576c1.0815-.2095,2.0591-.4238,2.9321-.6431l.0952,1.3149c-2.041.5811-4.3667,1.0884-6.9775,1.5215l-.4683-1.5361c1.1133-.1187,2.0859-.25,2.9185-.3926v-3.3223h-2.2534v-1.3574h6.0747v1.3574h-2.3213ZM80.1472,7.7306h4.0864v1.4219h-3.9775c.1445,1.5288.312,2.6885.5024,3.4795.312,1.2812.7485,2.3457,1.3096,3.1934.2671.4048.4551.6074.5635.6074.0903,0,.1812-.1572.2715-.4717.1538-.5381.2578-1.1455.312-1.8218l1.3643,1c-.2036,1.1289-.4204,1.9434-.6514,2.4438-.2808.6045-.6177.9072-1.0112.9072-.3892,0-.8574-.2837-1.4053-.8501-.4932-.5049-.9453-1.2124-1.3574-2.1221-.7148-1.5908-1.1763-3.7129-1.3843-6.3657h-7.1606v-1.4219h7.0586c-.0586-1.0527-.0996-2.0386-.1221-2.958h1.5137c.0044,1.0244.0337,2.0103.0879,2.958ZM82.1633,7.6877c-.4526-.8237-.9639-1.5718-1.5342-2.2432l1.1675-.6719c.561.5767,1.1089,1.2979,1.6426,2.165l-1.2759.75Z" style="fill:#757471;"/><path d="M96.5954,9.1452v1.1719h-6.8413v-.8574c-.7876.5571-1.645,1.0386-2.5728,1.4434l-.8755-1.3008c2.6108-1.0288,4.5522-2.6387,5.8237-4.8296h1.6694c1.0137,1.3003,2.2197,2.3413,3.6177,3.1221.6338.3574,1.4258.7266,2.376,1.1074l-.7266,1.415c-.9771-.4434-1.8008-.8672-2.4707-1.272ZM92.4758,13.4674c-.5747,1.1577-1.2129,2.2129-1.9141,3.165l.2173-.0068c1.8823-.0952,3.5947-.2407,5.1377-.436-.4751-.562-.9932-1.1118-1.5542-1.6504l1.2827-.7788c1.2852,1.186,2.457,2.4844,3.5161,3.894l-1.3643,1.0073c-.3892-.5571-.7197-1.0122-.9912-1.3647l-.2236.0356c-2.4258.4097-5.3892.7407-8.8916.9932l-.4819-1.5361c.3574-.0093.6943-.0234,1.0112-.0425l.6382-.0288c.6606-1.0288,1.2441-2.1123,1.751-3.251h-3.9028v-1.4072h12.7471v1.4072h-6.9775ZM96.3107,8.9738c-1.1768-.7383-2.2783-1.7007-3.3057-2.8862-.7603,1.1523-1.6313,2.1147-2.6133,2.8862h5.9189Z" style="fill:#757471;"/><path d="M105.6315,11.0885c.7603.4668,1.5586,1.0884,2.396,1.8647l-.835,1.4072c-.561-.6187-1.1245-1.1904-1.6899-1.7144v6.0298h-1.4321v-5.7798c-.561.5713-1.1401,1.0884-1.7378,1.5503l-.8755-1.3003c1.0181-.7241,1.9551-1.5884,2.8101-2.5933.5747-.6763,1.0454-1.3433,1.4116-2.0005h-3.7598v-1.436h2.1108v-2.3438h1.4453v2.3438h1.5137l.6787.6855c-.4932,1.0479-1.1719,2.1436-2.0361,3.2866ZM110.2604,8.8664v-4.0938h1.5v4.0938h2.8779v1.436h-2.8779v6.4087h3.0815v1.4648h-7.9751v-1.4648h3.3936v-6.4087h-2.8232v-1.436h2.8232Z" style="fill:#757471;"/><polygon points="7.7053 0 0 19.3133 6.107 19.3133 8.774 11.8933 8.774 19.3133 14.2655 19.3133 14.2655 5.1909 20.9975 5.1909 20.9975 0 7.7053 0" style="fill:#1353a3;"/><rect x="15.506" y="6.4073" width="5.4915" height="12.8297" style="fill:#1353a3;"/></svg>